# xmcd CD database file
#
# Track frame offsets:
#	150
#	12545
#	35098
#	49850
#	64434
#	78339
#	89295
#	105351
#	128928
#	138614
#	153740
#	173027
#	188489
#	200359
#	209078
#	225195
#	240593
#	256555
#	273955
#	289726
#
# Disc length: 4029 seconds
#
# Revision: 0
# Processed by: cddbd v1.5.2PL0 Copyright (c) Steve Scherf et al.
# Submitted via: CDex 1.70beta2
#
DISCID=180fbb14
DTITLE=B.B. King - Blues 20 Hits
DYEAR=2005
DGENRE=Blues
TTITLE0=Rock Me Baby
TTITLE1=Every Day I Have The Blues
TTITLE2=B.B. Boogie
TTITLE3=Mr. Pawnbroker
TTITLE4=Save A Seat For Me
TTITLE5=Catfish Blues
TTITLE6=It's My Own Fault
TTITLE7=You Done Lost Your Good Think Now
TTITLE8=Swing Low, Sween Chariot/Rock Me, Lord
TTITLE9=Precious Lord
TTITLE10=Sweet Sixteen
TTITLE11=How Blue Can I Get
TTITLE12=Paying The Cost To Be Boss
TTITLE13=A New Way Of Driving
TTITLE14=The Letter
TTITLE15=Walkin' And Cryin'/You Don't Love Me No More
TTITLE16=The Other Night Blues
TTITLE17=That Evil Child
TTITLE18=Long Nights
TTITLE19=Working On A Building
EXTD=YEAR: 2005
EXTT0=
EXTT1=
EXTT2=
EXTT3=
EXTT4=
EXTT5=
EXTT6=
EXTT7=
EXTT8=
EXTT9=
EXTT10=
EXTT11=
EXTT12=
EXTT13=
EXTT14=
EXTT15=
EXTT16=
EXTT17=
EXTT18=
EXTT19=
PLAYORDER=
